# xmcd
#
# Track frame offsets: 
#        150
#        12380
#        22740
#        34105
#        43715
#        52427
#        65282
#        75072
#        87592
#        95230
#
# Disc length: 1403 seconds
#
# Revision: 0
# Processed by: cddbd v1.5.1PL0 Copyright (c) Steve Scherf et al.
# Submitted via: ExactAudioCopy v0.95a5
#
DISCID=7905790a
DTITLE=Shirley and Squirrely - Christmas With Shirley and Squirrely
DYEAR=1980
DGENRE=Christmas/Holiday
TTITLE0=A Squirrely Christmas
TTITLE1=The Twelve Days Of Christmas
TTITLE2=Let It Snow! Let It Snow! Let It Snow!
TTITLE3='Twas The Night Before Christmas
TTITLE4=Medley: Jingle Bells-Jolly Old St. Nicholas
TTITLE5=The Christmas Haunted House
TTITLE6=Winter Wonderland
TTITLE7=The Christmas Song
TTITLE8=Deck The Halls
TTITLE9=Medley: Here Comes Santa Claus-We Wish You A Merry Christmas
EXTD=
EXTT0=
EXTT1=
EXTT2=
EXTT3=
EXTT4=
EXTT5=
EXTT6=
EXTT7=
EXTT8=
EXTT9=
PLAYORDER=
